<svg xmlns="http://www.w3.org/2000/svg" viewBox="0 0 21 32">
  <path d="M11.57,25.4L10.31,26.21L9.76,26.12L9.1,25.51L8.4,25.59L8.7,25.27L8.1,24.99L7.67,25L7.06,25.39L6.61,25.11L6.33,24.51L6.68,24.11L8.11,23.41L8.58,22.96L8.92,22.21L8.72,21.98L8.8,21.65L8.64,21.25L8.67,20.92L7.5,21.3L8.34,20.13L9.26,19.58L10.03,19.45L10.7,19.73L10.57,19.26L10.77,19.15L11.07,19.57L11.41,19.55L11.07,19.42L10.77,18.85L11.05,18.09L10.83,17.95L10.85,17.49L11.1,17.3L11.17,16.55L10.57,16.72L9.75,15.54L9.71,15.21L9.96,14.48L10.36,14.02L10.83,13.86L9.79,13.88L8.96,14.46L8.61,14.47L8.37,14.23L7.84,14.54L7.22,14.23L7.04,14.77L6.58,14.19L6.51,13.75L6.74,13.74L7.51,11.96L7.08,11.28L7.21,10.48L7.7,10.45L7.17,10.06L7.26,9.68L7.01,10.14L6.4,10.63L6.41,10L6.86,9.43L6.08,10.17L6.07,11.03L5.73,12.35L5.55,12.57L5.3,12.44L5.48,11.54L5.83,10.92L5.6,10.88L5.78,9.37L6.48,7.61L5.54,8.39L5.11,8.29L4.9,7.84L4.57,7.75L5.38,7.28L5.11,7.1L5.66,6.41L5.73,5.96L5.2,5.26L5.68,4.87L5.35,4.45L5.63,3.72L6.54,3.72L6.02,3.06L6.18,2.48L6.84,2.4L6.68,1.97L6.72,1.51L6.9,1.3L7.44,1.54L7.89,1.34L8,1.53L10.79,1.11L10.67,1.89L10.47,2.19L8.9,3.45L8.81,3.82L9.17,3.94L8.61,4.77L10.3,4.31L12.77,4.34L13.19,4.65L13.37,5.13L12.88,5.87L12.4,7.24L11.91,8.03L11.55,8.45L10.27,8.98L11.13,8.86L11.61,9.13L11.56,9.35L10.17,10.14L9.31,9.91L9.67,10.18L10.81,10.4L11.71,10.14L12.63,10.57L13.62,11.72L14.47,14.72L15.61,15.42L16.8,16.75L16.55,17.09L17.2,18.52L16.42,18.07L15.63,18.12L16.37,18.23L17.52,19.46L17.68,20.07L17.06,20.96L17.53,21.29L18.1,20.75L19.1,20.77L19.76,21L20.43,21.74L20.5,22.47L20.12,23.79L19.63,24.24L19.46,24.19L19.55,24.63L19.37,24.77L18.9,24.76L18.48,25.03L18.78,25.17L18.77,25.57L17.82,25.94L18.03,25.88L18.35,26.22L18.77,26.31L19.83,26.3L19.79,26.93L19.08,27.39L18.91,27.81L18.53,27.79L17.38,28.38L16.56,28.2L15.38,28.37L14.1,27.91L14.27,28.18L13.9,28.43L12.86,28.51L13,28.85L12.85,28.93L12.05,28.94L10.9,28.54L10.09,28.83L9.52,30.19L9.3,30.23L8.48,29.66L7.41,30.01L6.84,30.46L6.62,30.89L5.98,30.66L5.6,30.84L5.53,30.57L6.17,30.17L7.07,29.17L7.7,28.33L7.82,27.64L8.28,27.46L8.5,26.9L10.62,26.84L12.05,24.99L11.57,25.4Z" fill="#1C2B45"/>
  <path d="M4.39,16.85L3.52,16.96L3.48,16.52L3.21,16.42L2.95,15.87L2.71,15.75L2.41,16.12L2.5,16.33L2.16,16.7L1.59,16.67L1.09,16.41L0.5,15.59L1.29,15.1L0.97,14.74L1.7,14.5L2.05,13.6L2.37,13.38L2.61,13.53L2.92,13.07L3.88,12.87L4.58,12.94L5.41,14.33L5.42,14.54L5.09,14.94L5.68,14.86L5.91,15.43L5.88,15.63L5.5,15.26L5.53,15.84L5.73,15.88L5.63,16.22L5.19,16.35L4.8,16.99L4.39,16.85Z" fill="#1C2B45"/>
</svg>